<svg width="32" height="32" viewBox="0 0 32 32" fill="none" xmlns="http://www.w3.org/2000/svg" role="img" aria-label="api-common">
  <rect x="1" y="1" width="30" height="30" rx="8" fill="#e879f9" fill-opacity="0.12" stroke="#e879f9" stroke-opacity="0.4"/>
  <path d="M13 9c-2.2 0-3 1.2-3 3v2.2c0 .9-.6 1.4-1.6 1.4v.8c1 0 1.6.5 1.6 1.4V21c0 1.8.8 3 3 3" stroke="#e879f9" stroke-width="1.8" stroke-linecap="round" stroke-linejoin="round"/>
  <path d="M19 9c2.2 0 3 1.2 3 3v2.2c0 .9.6 1.4 1.6 1.4v.8c-1 0-1.6.5-1.6 1.4V21c0 1.8-.8 3-3 3" stroke="#e879f9" stroke-width="1.8" stroke-linecap="round" stroke-linejoin="round"/>
</svg>
